<?xml version="1.0" encoding="utf-8"?>
<!DOCTYPE svg PUBLIC "-//W3C//DTD SVG 1.1//EN" "http://www.w3.org/Graphics/SVG/1.1/DTD/svg11.dtd">
<svg version="1.1" xmlns="http://www.w3.org/2000/svg" xmlns:xlink="http://www.w3.org/1999/xlink" x="0px" y="0px"
	 width="130px" height="40px" viewBox="0 0 130 40" enable-background="new 0 0 130 40" xml:space="preserve">
<path fill="#FFFFFF" d="M73.8,32.1c1.3-0.3,2.2-1.1,2.8-2.4c0.3-0.7,0.5-1.6,0.7-2.8c0.2-1.2,0.2-2.2,0.2-3.1v-1.1h-6
	c0,0.5,0,0.9,0,1.4c0,0.4,0,0.9,0,1.3c0,0.6-0.1,1.2-0.2,1.8c-0.1,0.6-0.6,0.9-1.4,0.9c-0.8,0-1.3-0.3-1.4-0.9
	c-0.1-0.6-0.2-1.2-0.2-1.8c0-1.9,0-3.9-0.1-5.9c0-2,0-3.9,0.1-5.9c0-1.5,0.5-2.2,1.5-2.2c1,0,1.5,0.7,1.5,2.2c0,0.4,0,0.9,0,1.3
	c0,0.4,0,0.9,0,1.3h5.9c-0.1-0.9-0.2-1.8-0.3-2.9c-0.1-1.1-0.3-1.9-0.5-2.5c-0.5-1.5-1.4-2.5-2.7-3c-1.3-0.4-2.6-0.7-4-0.7
	c-1.4,0-2.8,0.2-4,0.7c-1.3,0.4-2.2,1.4-2.7,3c-0.3,0.7-0.5,1.7-0.7,2.9c-0.2,1.2-0.3,2.3-0.3,3.6V23c0,1.3,0.1,2.5,0.3,3.8
	c0.2,1.3,0.5,2.2,0.8,2.9c0.6,1.3,1.5,2.1,2.8,2.3c1.3,0.3,2.5,0.4,3.8,0.4C71.3,32.5,72.5,32.4,73.8,32.1z"/>
<path fill="#FFFFFF" d="M85.4,22.6l1.4-11.2h0.1l1.4,11.2H85.4z M88.9,27.1l0.7,5.2h6L91.3,7.5h-8.8l-4.3,24.7h6l0.7-5.2H88.9z"/>
<path fill="#FFFFFF" d="M96.9,32.2h5.9V23h1c1,0,1.6,0.2,1.9,0.6c0.3,0.4,0.4,1,0.4,1.7v6.9h6v-5.7c0-1.5-0.3-2.8-1-3.8
	c-0.7-1-1.7-1.6-3-1.9v-0.1c1.3-0.2,2.2-0.7,2.8-1.5c0.5-0.6,0.8-1.4,0.9-2.2c0.1-0.9,0.1-1.7,0.1-2.5c0-1.1-0.1-2.1-0.2-3.1
	c-0.1-1-0.6-1.9-1.5-2.5c-0.8-0.6-1.8-1-3-1.1c-1.1-0.1-2.2-0.2-3.2-0.2h-7.4V32.2z M102.8,11.9h1.4c0.8,0,1.3,0.2,1.6,0.5
	c0.3,0.3,0.4,0.9,0.4,1.6c0,0.4,0,0.7,0,1c0,0.3,0,0.6,0,0.9c0,0.6-0.1,1.1-0.2,1.5c-0.1,0.4-0.4,0.7-0.7,0.9
	c-0.3,0.2-0.7,0.3-1.4,0.3h-1.1V11.9z"/>
<path fill="#FFFFFF" d="M113.4,12.3h4v19.9h5.9V12.3h4V7.5h-14V12.3z"/>
<path fill="#f29221" d="M53.2,16.5L53.2,16.5l-2-9h-6.1l3.7,11.8l-4,13h6.2l2-9.7h0.1l2.1,9.7h6.2l-4-12.9l3.7-11.8h-6.1L53.2,16.5z
	"/>
<path fill-rule="evenodd" clip-rule="evenodd" fill="#f29221" d="M5.9,0.5h28.4c2.8,0,5.2,2.3,5.2,5.2v28.4c0,2.8-2.3,5.2-5.2,5.2
	H5.9c-2.8,0-5.2-2.3-5.2-5.2V5.7C0.8,2.8,3.1,0.5,5.9,0.5z"/>
<path fill-rule="evenodd" clip-rule="evenodd" fill="#FFFFFF" d="M30.4,19.3c-0.6,0.6-1.7,1.7-2.7,2.7c0.9,0.9,2.1,2.1,2.6,2.6
	c0.2,0.2,0.4,0.6,0.4,0.9c0,1.4,0,3.3,0,4.7c0,0.5-0.1,0.6-0.6,0.6c-1.8,0-1.8,0-2.2,0c0-0.9,0-2.2,0-3.6c0-0.5-0.1-0.7-0.4-1
	c-0.5-0.5-1.9-1.9-2.4-2.4c-0.3-0.3-0.7-0.4-1-0.4c-1.8,0-6.6,0-7.9,0c-0.4,0-0.8,0.1-1,0.4c-0.5,0.5-1.9,1.9-2.4,2.4
	c-0.3,0.3-0.4,0.5-0.4,1c0,1.1,0,1.9,0,2.9c0,0.5-0.1,0.7-0.7,0.7c-0.3,0-0.4,0-2.2,0c0-1.1,0-3.6,0-5.3c0-0.3,0.2-0.7,0.4-0.9
	c0.6-0.6,1.7-1.7,2.7-2.7c-0.9-0.9-2.1-2.1-2.6-2.6c-0.2-0.2-0.4-0.6-0.4-0.9c0-1.7,0-8.4,0-9.5c2.6,0,2.4,0,2.9,0
	c0,0.9,0,6.4,0,7.8c0,0.5,0.1,0.7,0.4,1c0.5,0.5,1.9,1.9,2.4,2.4c0.3,0.3,0.7,0.4,1,0.4c1.7,0,6.6,0,7.9,0c0.4,0,0.8-0.1,1-0.4
	c0.5-0.5,1.9-1.9,2.4-2.4c0.3-0.3,0.4-0.5,0.4-1c0-1.3,0-6.9,0-7.8c0.4,0,0.3,0,2.9,0c0,1.1,0,7.8,0,9.5
	C30.8,18.8,30.6,19.1,30.4,19.3z"/>
<path fill-rule="evenodd" clip-rule="evenodd" fill="#FFFFFF" d="M15.4,14.4h2.1v2.1h-2.1V14.4z"/>
<path fill-rule="evenodd" clip-rule="evenodd" fill="#FFFFFF" d="M23.2,14.4h2.1v2.1h-2.1V14.4z"/>
<path fill-rule="evenodd" clip-rule="evenodd" fill="#FFFFFF" d="M15.4,10.5h2.1v2.1h-2.1V10.5z"/>
<path fill-rule="evenodd" clip-rule="evenodd" fill="#FFFFFF" d="M23.2,10.5h2.1v2.1h-2.1V10.5z"/>
<path fill-rule="evenodd" clip-rule="evenodd" fill="#FFFFFF" d="M19.3,14.4h2.1v2.1h-2.1V14.4z"/>
<path fill-rule="evenodd" clip-rule="evenodd" fill="#FFFFFF" d="M19.3,10.5h2.1v2.1h-2.1V10.5z"/>
<path fill-rule="evenodd" clip-rule="evenodd" fill="#b14c26" d="M12.5,32.9c-0.9,0-1.7-0.7-1.9-1.5h1.6c0.4,0,0.8-0.4,0.8-0.8V29
	c0.9,0.2,1.5,1,1.5,1.9C14.5,32,13.6,32.9,12.5,32.9z"/>
<path fill-rule="evenodd" clip-rule="evenodd" fill="#b14c26" d="M30.9,32.9c-0.9,0-1.7-0.6-1.9-1.5h1.6c0.4,0,0.8-0.4,0.8-0.8V29
	c0.9,0.2,1.5,1,1.5,1.9C32.9,32,32,32.9,30.9,32.9z"/>
</svg>
